<svg xmlns="http://www.w3.org/2000/svg" xmlns:v="https://svgstorm.com"
viewBox = "0 0 128 128"
width="128"
height="128">
<g fill="None" fill-opacity="0.0" stroke="#FEFEFC" stroke-opacity="1.00" stroke-width="0.3"><path d="
M 0.00 128.00 
L 128.00 128.00
L 128.00 0.00
L 0.00 0.00
L 0.00 128.00
M 85.00 49.00 
C 81.84 49.65 78.22 48.71 75.00 49.00
C 74.96 49.00 75.00 50.00 75.00 50.00
C 77.03 50.67 76.48 52.16 78.00 53.00
C 79.43 53.30 81.66 53.90 83.00 54.00
C 87.21 54.32 96.23 49.90 100.02 51.02 C 103.81 52.15 113.27 51.81 109.23 56.23 C 105.18 60.65 95.07 53.11 92.00 59.00
C 88.09 50.02 81.63 64.72 92.00 60.00
C 97.35 67.62 108.26 63.76 116.00 65.00
C 111.91 65.90 109.41 69.41 105.00 70.00
C 105.57 73.55 107.66 82.08 102.75 83.75 C 97.85 85.43 98.76 89.39 101.78 94.22 C 104.79 99.06 111.62 92.29 114.00 93.00
C 114.87 94.01 113.81 97.80 115.00 99.00
C 111.09 97.93 107.04 100.22 102.00 100.00
C 99.88 100.58 100.96 100.25 100.00 102.00
C 98.80 104.19 99.77 103.98 98.00 104.00
C 93.70 104.06 91.29 102.42 87.00 105.00
C 87.27 105.14 88.04 106.68 88.00 107.00
C 87.96 107.35 87.21 107.73 87.00 108.00
C 85.25 110.24 86.30 113.36 86.00 116.00
C 82.19 111.46 75.61 112.63 71.00 115.00
C 68.22 116.13 66.97 116.59 65.00 119.00
C 64.85 119.86 65.88 119.59 65.00 121.00
C 63.38 123.59 60.06 120.55 58.00 119.00
C 56.22 117.66 56.99 118.18 57.00 117.00
C 57.04 112.11 55.43 110.73 51.00 108.00
C 46.43 107.03 43.49 111.36 40.00 111.00
C 38.47 110.84 36.25 107.83 35.00 107.00
C 31.40 105.37 26.98 106.21 23.00 106.00
C 23.00 104.67 23.00 103.33 23.00 102.00
C 22.92 101.74 23.65 101.14 24.00 101.00
C 27.77 99.53 24.74 96.22 23.00 94.00
C 19.60 91.35 14.80 92.79 11.00 91.00
C 14.55 88.65 18.27 85.50 21.00 82.00
C 21.09 81.65 21.72 81.23 22.00 81.00
C 23.09 80.07 22.84 79.47 23.00 78.00
C 23.07 77.99 17.91 76.93 18.00 77.00
C 16.27 75.68 17.28 73.01 17.00 71.00
C 25.10 71.64 32.97 69.31 35.25 60.25 C 37.53 51.19 47.89 59.13 49.00 51.00
C 45.00 51.00 41.00 51.00 37.00 51.00
C 38.69 43.42 43.30 35.88 48.00 30.00
C 52.97 21.18 58.61 12.34 62.00 3.00
C 66.38 9.76 72.28 19.03 75.75 26.25 C 79.22 33.46 87.61 44.81 85.00 49.00 Z"/>
</g>
<g fill="None" fill-opacity="0.0" stroke="#F1BF65" stroke-opacity="1.00" stroke-width="0.3"><path d="
M 48.00 30.00 
C 46.09 33.40 37.09 47.89 40.00 49.00
C 42.40 42.26 47.00 36.17 53.25 32.25 C 59.50 28.32 62.37 19.68 70.00 19.00
C 70.03 21.37 72.50 22.72 73.00 25.00
C 73.73 26.34 74.28 27.67 75.00 29.00
C 75.95 30.74 77.02 32.30 78.00 34.00
C 78.76 35.32 79.28 36.67 80.00 38.00
C 80.96 39.78 86.62 48.01 85.00 49.00
C 87.61 44.81 79.22 33.46 75.75 26.25 C 72.28 19.03 66.38 9.76 62.00 3.00
C 58.61 12.34 52.97 21.18 48.00 30.00 Z"/>
</g>
<g fill="None" fill-opacity="0.0" stroke="#ECA745" stroke-opacity="1.00" stroke-width="0.3"><path d="
M 40.00 49.00 
C 43.37 50.29 47.90 47.50 51.00 50.00
C 51.00 49.50 51.00 49.00 51.00 49.00
C 49.03 47.41 46.34 48.20 44.00 48.00
C 55.18 43.51 62.19 26.88 73.00 25.00
C 72.50 22.72 70.03 21.37 70.00 19.00
C 62.37 19.68 59.50 28.32 53.25 32.25 C 47.00 36.17 42.40 42.26 40.00 49.00 Z"/>
</g>
<g fill="None" fill-opacity="0.0" stroke="#E2913A" stroke-opacity="1.00" stroke-width="0.3"><path d="
M 51.00 49.00 
C 55.00 46.86 60.08 41.03 63.25 38.25 C 66.41 35.47 73.33 28.19 75.00 29.00
C 74.28 27.67 73.73 26.34 73.00 25.00
C 62.19 26.88 55.18 43.51 44.00 48.00
C 46.34 48.20 49.03 47.41 51.00 49.00 Z"/>
</g>
<g fill="None" fill-opacity="0.0" stroke="#D57E34" stroke-opacity="1.00" stroke-width="0.3"><path d="
M 51.00 49.00 
C 51.00 49.00 51.00 49.50 51.00 50.00
C 51.00 50.50 51.00 51.00 51.00 51.00
C 51.25 53.06 50.18 54.70 50.00 56.00
C 49.98 57.32 50.13 58.69 50.00 60.00
C 50.29 59.41 50.68 58.82 51.00 58.00
C 54.23 49.69 70.24 42.17 75.00 32.00
C 76.25 32.30 76.71 33.83 78.00 34.00
C 77.02 32.30 75.95 30.74 75.00 29.00
C 73.33 28.19 66.41 35.47 63.25 38.25 C 60.08 41.03 55.00 46.86 51.00 49.00 Z"/>
</g>
<g fill="None" fill-opacity="0.0" stroke="#FCF2D1" stroke-opacity="1.00" stroke-width="0.3"><path d="
M 18.00 77.00 
C 17.65 70.01 29.56 74.88 31.75 68.75 C 33.94 62.62 40.42 61.86 39.00 56.00
C 42.31 55.78 44.33 59.24 48.00 58.00
C 47.89 59.00 48.47 60.73 47.00 61.00
C 46.47 61.98 43.89 63.45 43.00 64.00
C 44.37 63.66 45.54 63.13 47.00 63.00
C 46.20 74.47 42.94 84.89 43.00 96.00
C 40.25 96.27 39.32 92.71 37.00 92.00
C 39.57 90.13 37.43 85.41 35.00 89.00
C 34.36 84.83 36.29 79.34 34.00 76.00
C 34.00 76.50 34.00 77.00 34.00 77.00
C 32.00 80.50 32.62 88.15 34.92 91.08 C 37.23 94.00 41.31 100.01 45.00 97.00
C 45.26 96.79 45.95 96.23 46.00 96.00
C 46.53 93.60 46.00 90.46 46.00 88.00
C 46.00 83.27 46.30 78.90 48.00 75.00
C 48.00 74.50 48.00 74.00 48.00 74.00
C 47.75 71.91 48.79 70.34 49.00 69.00
C 49.18 65.79 49.70 63.01 50.00 60.00
C 50.13 58.69 49.98 57.32 50.00 56.00
C 50.04 53.93 49.62 52.43 51.00 51.00
C 51.00 51.00 51.00 50.50 51.00 50.00
C 47.90 47.50 43.37 50.29 40.00 49.00
C 37.09 47.89 46.09 33.40 48.00 30.00
C 43.30 35.88 38.69 43.42 37.00 51.00
C 41.00 51.00 45.00 51.00 49.00 51.00
C 47.89 59.13 37.53 51.19 35.25 60.25 C 32.97 69.31 25.10 71.64 17.00 71.00
C 17.28 73.01 16.27 75.68 18.00 77.00 Z"/>
</g>
<g fill="None" fill-opacity="0.0" stroke="#CC6C2D" stroke-opacity="1.00" stroke-width="0.3"><path d="
M 51.00 58.00 
C 53.94 57.45 53.83 60.25 57.77 55.77 C 61.70 51.28 68.99 47.26 72.75 42.75 C 76.51 38.24 76.55 35.94 80.00 38.00
C 79.28 36.67 78.76 35.32 78.00 34.00
C 76.71 33.83 76.25 32.30 75.00 32.00
C 70.24 42.17 54.23 49.69 51.00 58.00 Z"/>
</g>
<g fill="None" fill-opacity="0.0" stroke="#B85D29" stroke-opacity="1.00" stroke-width="0.3"><path d="
M 51.00 58.00 
C 50.68 58.82 50.29 59.41 50.00 60.00
C 49.70 63.01 49.18 65.79 49.00 69.00
C 48.89 71.09 49.41 72.54 48.00 74.00
C 48.00 74.00 48.00 74.50 48.00 75.00
C 48.00 75.50 48.00 76.00 48.00 76.00
C 54.18 69.69 69.76 61.77 74.00 52.00
C 74.02 51.74 73.77 48.40 75.00 49.00
C 78.22 48.71 81.84 49.65 85.00 49.00
C 86.62 48.01 80.96 39.78 80.00 38.00
C 76.55 35.94 76.51 38.24 72.75 42.75 C 68.99 47.26 61.70 51.28 57.77 55.77 C 53.83 60.25 53.94 57.45 51.00 58.00 Z"/>
</g>
<g fill="None" fill-opacity="0.0" stroke="#D8A571" stroke-opacity="1.00" stroke-width="0.3"><path d="
M 74.00 52.00 
C 73.87 53.63 73.95 55.37 74.00 57.00
C 74.05 57.15 75.00 57.00 75.00 57.00
C 75.00 55.33 75.00 53.67 75.00 52.00
C 75.00 51.50 75.00 50.50 75.00 50.00
C 75.00 50.00 74.96 49.00 75.00 49.00
C 73.77 48.40 74.02 51.74 74.00 52.00 Z"/>
</g>
<g fill="None" fill-opacity="0.0" stroke="#FEF7D0" stroke-opacity="1.00" stroke-width="0.3"><path d="
M 75.00 52.00 
C 75.34 52.87 77.32 52.86 78.00 53.00
C 76.48 52.16 77.03 50.67 75.00 50.00
C 75.00 50.50 75.00 51.50 75.00 52.00 Z"/>
</g>
<g fill="None" fill-opacity="0.0" stroke="#E8B87C" stroke-opacity="1.00" stroke-width="0.3"><path d="
M 50.00 56.00 
C 50.18 54.70 51.25 53.06 51.00 51.00
C 49.62 52.43 50.04 53.93 50.00 56.00 Z"/>
</g>
<g fill="None" fill-opacity="0.0" stroke="#F7EECD" stroke-opacity="1.00" stroke-width="0.3"><path d="
M 83.00 54.00 
C 85.01 55.88 81.54 57.82 82.00 60.00
C 85.86 63.35 92.34 60.04 94.00 66.00
C 98.36 64.18 102.11 66.25 106.00 68.00
C 105.59 68.83 105.03 69.87 104.00 70.00
C 103.73 70.18 103.34 70.86 103.00 71.00
C 102.32 74.56 104.64 78.11 105.00 81.00
C 102.98 83.81 100.47 81.02 98.00 83.00
C 99.08 83.63 99.25 85.53 98.00 86.00
C 97.87 91.92 100.84 92.43 102.00 97.00
C 106.53 98.67 111.05 95.96 114.00 93.00
C 111.62 92.29 104.79 99.06 101.78 94.22 C 98.76 89.39 97.85 85.43 102.75 83.75 C 107.66 82.08 105.57 73.55 105.00 70.00
C 109.41 69.41 111.91 65.90 116.00 65.00
C 108.26 63.76 97.35 67.62 92.00 60.00
C 81.63 64.72 88.09 50.02 92.00 59.00
C 95.07 53.11 105.18 60.65 109.23 56.23 C 113.27 51.81 103.81 52.15 100.02 51.02 C 96.23 49.90 87.21 54.32 83.00 54.00 Z"/>
</g>
<g fill="None" fill-opacity="0.0" stroke="#9C4926" stroke-opacity="1.00" stroke-width="0.3"><path d="
M 48.00 76.00 
C 47.91 79.94 46.33 84.60 46.00 88.00
C 46.00 90.46 46.53 93.60 46.00 96.00
C 46.25 96.93 45.80 98.05 46.00 99.00
C 54.96 87.83 68.02 80.12 75.00 69.00
C 74.62 67.18 75.00 64.86 75.00 63.00
C 75.00 62.50 75.00 62.00 75.00 62.00
C 73.69 60.64 74.06 58.97 74.00 57.00
C 73.95 55.37 73.87 53.63 74.00 52.00
C 69.76 61.77 54.18 69.69 48.00 76.00 Z"/>
</g>
<g fill="None" fill-opacity="0.0" stroke="#F3D188" stroke-opacity="1.00" stroke-width="0.3"><path d="
M 75.00 57.00 
C 75.00 58.67 75.00 60.33 75.00 62.00
C 75.00 62.00 75.00 62.50 75.00 63.00
C 76.36 64.59 75.99 66.77 76.00 69.00
C 76.01 70.33 76.00 71.67 76.00 73.00
C 76.13 73.22 77.00 73.00 77.00 73.00
C 76.92 69.02 76.84 64.97 77.00 61.00
C 77.08 59.05 76.47 57.26 78.00 56.00
C 78.79 55.35 81.08 56.50 82.00 56.00
C 81.75 58.19 78.93 59.01 80.00 62.00
C 82.77 63.95 86.99 66.21 89.00 69.00
C 88.17 67.50 86.66 66.55 86.00 65.00
C 87.61 65.01 90.43 64.41 90.00 67.00
C 93.09 68.04 102.47 66.81 104.00 70.00
C 105.03 69.87 105.59 68.83 106.00 68.00
C 102.11 66.25 98.36 64.18 94.00 66.00
C 92.34 60.04 85.86 63.35 82.00 60.00
C 81.54 57.82 85.01 55.88 83.00 54.00
C 81.66 53.90 79.43 53.30 78.00 53.00
C 77.32 52.86 75.34 52.87 75.00 52.00
C 75.00 53.67 75.00 55.33 75.00 57.00 Z"/>
</g>
<g fill="None" fill-opacity="0.0" stroke="#EBC577" stroke-opacity="1.00" stroke-width="0.3"><path d="
M 18.00 77.00 
C 17.91 76.93 23.07 77.99 23.00 78.00
C 23.17 76.44 33.39 70.44 36.00 73.00
C 35.27 70.31 35.83 69.17 38.00 67.00
C 37.78 67.39 36.27 64.42 37.00 64.00
C 39.70 64.70 42.83 63.20 42.00 60.00
C 43.57 60.39 46.22 59.06 47.00 61.00
C 48.47 60.73 47.89 59.00 48.00 58.00
C 44.33 59.24 42.31 55.78 39.00 56.00
C 40.42 61.86 33.94 62.62 31.75 68.75 C 29.56 74.88 17.65 70.01 18.00 77.00 Z"/>
</g>
<g fill="None" fill-opacity="0.0" stroke="#8F592D" stroke-opacity="1.00" stroke-width="0.3"><path d="
M 77.00 61.00 
C 77.08 60.81 78.58 60.82 79.00 61.00
C 79.05 60.56 79.43 54.83 78.00 56.00
C 76.47 57.26 77.08 59.05 77.00 61.00 Z"/>
</g>
<g fill="None" fill-opacity="0.0" stroke="#BF8946" stroke-opacity="1.00" stroke-width="0.3"><path d="
M 79.00 61.00 
C 79.26 61.11 79.70 61.79 80.00 62.00
C 78.93 59.01 81.75 58.19 82.00 56.00
C 81.08 56.50 78.79 55.35 78.00 56.00
C 79.43 54.83 79.05 60.56 79.00 61.00 Z"/>
</g>
<g fill="None" fill-opacity="0.0" stroke="#A76D32" stroke-opacity="1.00" stroke-width="0.3"><path d="
M 75.00 62.00 
C 75.00 60.33 75.00 58.67 75.00 57.00
C 75.00 57.00 74.05 57.15 74.00 57.00
C 74.06 58.97 73.69 60.64 75.00 62.00 Z"/>
</g>
<g fill="None" fill-opacity="0.0" stroke="#B5814A" stroke-opacity="1.00" stroke-width="0.3"><path d="
M 38.00 67.00 
C 39.53 65.47 41.41 64.99 43.00 64.00
C 43.89 63.45 46.47 61.98 47.00 61.00
C 46.22 59.06 43.57 60.39 42.00 60.00
C 42.83 63.20 39.70 64.70 37.00 64.00
C 36.27 64.42 37.78 67.39 38.00 67.00 Z"/>
</g>
<g fill="None" fill-opacity="0.0" stroke="#FDF2D1" stroke-opacity="1.00" stroke-width="0.3"><path d="
M 77.00 73.00 
C 77.12 79.13 78.00 84.72 78.00 91.00
C 78.16 92.34 79.92 94.97 79.00 97.00
C 86.15 95.71 90.52 86.91 90.00 80.00
C 89.95 79.51 90.00 79.00 90.00 79.00
C 90.00 78.50 89.76 77.31 90.00 77.00
C 92.06 74.40 90.85 72.37 89.00 69.00
C 86.99 66.21 82.77 63.95 80.00 62.00
C 79.70 61.79 79.26 61.11 79.00 61.00
C 78.58 60.82 77.08 60.81 77.00 61.00
C 76.84 64.97 76.92 69.02 77.00 73.00
M 78.00 63.00 
C 85.06 64.87 88.33 71.17 89.00 78.00 C 89.67 84.83 82.90 97.06 80.01 87.99 C 77.12 78.92 79.80 72.01 78.00 63.00 Z"/>
</g>
<g fill="None" fill-opacity="0.0" stroke="#FDFBF7" stroke-opacity="1.00" stroke-width="0.3"><path d="
M 43.00 64.00 
C 41.41 64.99 39.53 65.47 38.00 67.00
C 35.83 69.17 35.27 70.31 36.00 73.00
C 36.07 73.27 35.25 73.75 35.00 74.00
C 34.75 74.25 34.12 74.74 34.00 75.00
C 33.81 75.41 34.00 76.00 34.00 76.00
C 36.29 79.34 34.36 84.83 35.00 89.00
C 37.43 85.41 39.57 90.13 37.00 92.00
C 39.32 92.71 40.25 96.27 43.00 96.00
C 42.94 84.89 46.20 74.47 47.00 63.00
C 45.54 63.13 44.37 63.66 43.00 64.00 Z"/>
</g>
<g fill="None" fill-opacity="0.0" stroke="#D09769" stroke-opacity="1.00" stroke-width="0.3"><path d="
M 75.00 69.00 
C 75.01 68.92 76.00 69.00 76.00 69.00
C 75.99 66.77 76.36 64.59 75.00 63.00
C 75.00 64.86 74.62 67.18 75.00 69.00 Z"/>
</g>
<g fill="None" fill-opacity="0.0" stroke="#FDFDFA" stroke-opacity="1.00" stroke-width="0.3"><path d="
M 78.00 63.00 
C 79.80 72.01 77.12 78.92 80.01 87.99 C 82.90 97.06 89.67 84.83 89.00 78.00 C 88.33 71.17 85.06 64.87 78.00 63.00 Z"/>
</g>
<g fill="None" fill-opacity="0.0" stroke="#AE743E" stroke-opacity="1.00" stroke-width="0.3"><path d="
M 89.00 69.00 
C 90.85 72.37 92.06 74.40 90.00 77.00
C 91.68 76.09 92.31 78.20 90.00 79.00
C 90.00 79.00 89.95 79.51 90.00 80.00
C 90.25 80.25 91.00 80.00 91.00 80.00
C 95.20 79.38 91.51 68.85 90.00 67.00
C 90.43 64.41 87.61 65.01 86.00 65.00
C 86.66 66.55 88.17 67.50 89.00 69.00 Z"/>
</g>
<g fill="None" fill-opacity="0.0" stroke="#DF963F" stroke-opacity="1.00" stroke-width="0.3"><path d="
M 91.00 80.00 
C 92.10 81.84 92.49 83.96 93.00 86.00
C 94.56 82.43 94.41 84.09 97.00 86.00
C 95.07 84.34 97.44 83.99 98.00 83.00
C 99.42 80.51 99.66 76.62 103.00 77.00
C 101.43 75.53 99.28 71.00 103.00 71.00
C 103.34 70.86 103.73 70.18 104.00 70.00
C 102.47 66.81 93.09 68.04 90.00 67.00
C 91.51 68.85 95.20 79.38 91.00 80.00 Z"/>
</g>
<g fill="None" fill-opacity="0.0" stroke="#D29B68" stroke-opacity="1.00" stroke-width="0.3"><path d="
M 48.00 74.00 
C 49.41 72.54 48.89 71.09 49.00 69.00
C 48.79 70.34 47.75 71.91 48.00 74.00 Z"/>
</g>
<g fill="None" fill-opacity="0.0" stroke="#B65927" stroke-opacity="1.00" stroke-width="0.3"><path d="
M 46.00 96.00 
C 45.95 96.23 45.26 96.79 45.00 97.00
C 44.91 100.48 48.61 100.41 51.00 101.00
C 53.63 101.33 56.36 100.76 59.00 101.00
C 62.48 91.85 75.80 90.29 76.00 80.00
C 75.78 77.71 76.00 75.30 76.00 73.00
C 76.00 71.67 76.01 70.33 76.00 69.00
C 76.00 69.00 75.01 68.92 75.00 69.00
C 68.02 80.12 54.96 87.83 46.00 99.00
C 45.80 98.05 46.25 96.93 46.00 96.00 Z"/>
</g>
<g fill="None" fill-opacity="0.0" stroke="#E3B66B" stroke-opacity="1.00" stroke-width="0.3"><path d="
M 98.00 83.00 
C 100.47 81.02 102.98 83.81 105.00 81.00
C 104.64 78.11 102.32 74.56 103.00 71.00
C 99.28 71.00 101.43 75.53 103.00 77.00
C 99.66 76.62 99.42 80.51 98.00 83.00 Z"/>
</g>
<g fill="None" fill-opacity="0.0" stroke="#B7672C" stroke-opacity="1.00" stroke-width="0.3"><path d="
M 23.00 78.00 
C 22.84 79.47 23.09 80.07 22.00 81.00
C 21.50 86.38 22.22 85.46 19.00 90.00
C 19.27 90.13 19.68 90.81 20.00 91.00
C 22.08 90.94 26.52 89.42 27.00 86.00
C 29.28 85.15 29.59 87.15 31.00 88.00
C 30.05 83.99 28.69 78.25 34.00 77.00
C 34.00 77.00 34.00 76.50 34.00 76.00
C 34.00 76.00 33.81 75.41 34.00 75.00
C 31.14 74.04 33.12 74.44 35.00 74.00
C 35.25 73.75 36.07 73.27 36.00 73.00
C 33.39 70.44 23.17 76.44 23.00 78.00 Z"/>
</g>
<g fill="None" fill-opacity="0.0" stroke="#DD9246" stroke-opacity="1.00" stroke-width="0.3"><path d="
M 76.00 80.00 
C 76.34 83.60 77.82 88.69 77.00 93.00
C 72.65 93.91 70.85 100.71 66.00 102.00
C 70.18 101.67 73.96 99.95 78.00 99.00
C 78.00 96.33 78.00 93.67 78.00 91.00
C 78.00 84.72 77.12 79.13 77.00 73.00
C 77.00 73.00 76.13 73.22 76.00 73.00
C 76.00 75.30 75.78 77.71 76.00 80.00 Z"/>
</g>
<g fill="None" fill-opacity="0.0" stroke="#612A09" stroke-opacity="1.00" stroke-width="0.3"><path d="
M 34.00 75.00 
C 34.12 74.74 34.75 74.25 35.00 74.00
C 33.12 74.44 31.14 74.04 34.00 75.00 Z"/>
</g>
<g fill="None" fill-opacity="0.0" stroke="#DEB085" stroke-opacity="1.00" stroke-width="0.3"><path d="
M 46.00 88.00 
C 46.33 84.60 47.91 79.94 48.00 76.00
C 48.00 76.00 48.00 75.50 48.00 75.00
C 46.30 78.90 46.00 83.27 46.00 88.00 Z"/>
</g>
<g fill="None" fill-opacity="0.0" stroke="#F3BC5A" stroke-opacity="1.00" stroke-width="0.3"><path d="
M 31.00 88.00 
C 32.27 93.37 35.19 98.02 40.00 101.00
C 42.94 102.82 45.79 103.12 49.00 104.00
C 54.76 105.58 60.64 106.76 67.00 106.00
C 64.02 107.64 63.11 114.05 59.00 112.00
C 59.28 114.75 59.90 117.45 61.00 120.00
C 63.98 118.13 67.75 112.93 71.00 115.00
C 75.61 112.63 82.19 111.46 86.00 116.00
C 86.30 113.36 85.25 110.24 87.00 108.00
C 82.41 107.36 86.99 105.00 87.00 105.00
C 91.29 102.42 93.70 104.06 98.00 104.00
C 96.56 100.51 99.52 102.41 100.00 102.00
C 100.96 100.25 99.88 100.58 102.00 100.00
C 102.20 99.54 102.13 97.50 102.00 97.00
C 100.84 92.43 97.87 91.92 98.00 86.00
C 97.56 86.16 97.00 86.00 97.00 86.00
C 94.41 84.09 94.56 82.43 93.00 86.00
C 92.49 83.96 92.10 81.84 91.00 80.00
C 91.00 80.00 90.25 80.25 90.00 80.00
C 90.52 86.91 86.15 95.71 79.00 97.00
C 79.92 94.97 78.16 92.34 78.00 91.00
C 78.00 93.67 78.00 96.33 78.00 99.00
C 73.96 99.95 70.18 101.67 66.00 102.00
C 60.99 102.40 55.26 102.06 51.00 101.00
C 48.61 100.41 44.91 100.48 45.00 97.00
C 41.31 100.01 37.23 94.00 34.92 91.08 C 32.62 88.15 32.00 80.50 34.00 77.00
C 28.69 78.25 30.05 83.99 31.00 88.00 Z"/>
</g>
<g fill="None" fill-opacity="0.0" stroke="#5E2B0A" stroke-opacity="1.00" stroke-width="0.3"><path d="
M 90.00 79.00 
C 92.31 78.20 91.68 76.09 90.00 77.00
C 89.76 77.31 90.00 78.50 90.00 79.00 Z"/>
</g>
<g fill="None" fill-opacity="0.0" stroke="#CC702C" stroke-opacity="1.00" stroke-width="0.3"><path d="
M 51.00 101.00 
C 55.26 102.06 60.99 102.40 66.00 102.00
C 70.85 100.71 72.65 93.91 77.00 93.00
C 77.82 88.69 76.34 83.60 76.00 80.00
C 75.80 90.29 62.48 91.85 59.00 101.00
C 56.36 100.76 53.63 101.33 51.00 101.00 Z"/>
</g>
<g fill="None" fill-opacity="0.0" stroke="#F3C676" stroke-opacity="1.00" stroke-width="0.3"><path d="
M 21.00 82.00 
C 20.11 85.41 15.74 88.36 19.00 90.00
C 22.22 85.46 21.50 86.38 22.00 81.00
C 21.72 81.23 21.09 81.65 21.00 82.00 Z"/>
</g>
<g fill="None" fill-opacity="0.0" stroke="#F5EECD" stroke-opacity="1.00" stroke-width="0.3"><path d="
M 23.00 94.00 
C 21.99 92.72 21.40 91.84 20.00 91.00
C 19.68 90.81 19.27 90.13 19.00 90.00
C 15.74 88.36 20.11 85.41 21.00 82.00
C 18.27 85.50 14.55 88.65 11.00 91.00
C 14.80 92.79 19.60 91.35 23.00 94.00 Z"/>
</g>
<g fill="None" fill-opacity="0.0" stroke="#815227" stroke-opacity="1.00" stroke-width="0.3"><path d="
M 97.00 86.00 
C 97.00 86.00 97.56 86.16 98.00 86.00
C 99.25 85.53 99.08 83.63 98.00 83.00
C 97.44 83.99 95.07 84.34 97.00 86.00 Z"/>
</g>
<g fill="None" fill-opacity="0.0" stroke="#9A4F2B" stroke-opacity="1.00" stroke-width="0.3"><path d="
M 20.00 91.00 
C 21.40 91.84 21.99 92.72 23.00 94.00
C 24.74 96.22 27.77 99.53 24.00 101.00
C 24.83 101.18 26.18 104.21 26.00 105.00
C 29.40 106.42 31.88 104.92 35.00 107.00
C 36.25 107.83 38.47 110.84 40.00 111.00
C 36.29 107.78 33.17 100.20 40.00 101.00
C 35.19 98.02 32.27 93.37 31.00 88.00
C 29.59 87.15 29.28 85.15 27.00 86.00
C 26.52 89.42 22.08 90.94 20.00 91.00 Z"/>
</g>
<g fill="None" fill-opacity="0.0" stroke="#D2AE7E" stroke-opacity="1.00" stroke-width="0.3"><path d="
M 102.00 97.00 
C 102.13 97.50 102.20 99.54 102.00 100.00
C 107.04 100.22 111.09 97.93 115.00 99.00
C 113.81 97.80 114.87 94.01 114.00 93.00
C 111.05 95.96 106.53 98.67 102.00 97.00 Z"/>
</g>
<g fill="None" fill-opacity="0.0" stroke="#AA855D" stroke-opacity="1.00" stroke-width="0.3"><path d="
M 23.00 102.00 
C 23.08 102.28 25.68 104.87 26.00 105.00
C 26.18 104.21 24.83 101.18 24.00 101.00
C 23.65 101.14 22.92 101.74 23.00 102.00 Z"/>
</g>
<g fill="None" fill-opacity="0.0" stroke="#B86530" stroke-opacity="1.00" stroke-width="0.3"><path d="
M 40.00 111.00 
C 43.49 111.36 46.43 107.03 51.00 108.00
C 49.90 107.32 48.69 106.55 47.00 107.00
C 47.78 105.54 50.89 106.38 49.00 104.00
C 45.79 103.12 42.94 102.82 40.00 101.00
C 33.17 100.20 36.29 107.78 40.00 111.00 Z"/>
</g>
<g fill="None" fill-opacity="0.0" stroke="#704A2D" stroke-opacity="1.00" stroke-width="0.3"><path d="
M 98.00 104.00 
C 99.77 103.98 98.80 104.19 100.00 102.00
C 99.52 102.41 96.56 100.51 98.00 104.00 Z"/>
</g>
<g fill="None" fill-opacity="0.0" stroke="#F2D8B8" stroke-opacity="1.00" stroke-width="0.3"><path d="
M 35.00 107.00 
C 31.88 104.92 29.40 106.42 26.00 105.00
C 25.68 104.87 23.08 102.28 23.00 102.00
C 23.00 103.33 23.00 104.67 23.00 106.00
C 26.98 106.21 31.40 105.37 35.00 107.00 Z"/>
</g>
<g fill="None" fill-opacity="0.0" stroke="#D38E48" stroke-opacity="1.00" stroke-width="0.3"><path d="
M 51.00 108.00 
C 55.43 110.73 57.04 112.11 57.00 117.00
C 59.23 113.53 58.32 119.42 58.00 119.00
C 60.06 120.55 63.38 123.59 65.00 121.00
C 61.42 122.89 65.18 118.78 65.00 119.00
C 66.97 116.59 68.22 116.13 71.00 115.00
C 67.75 112.93 63.98 118.13 61.00 120.00
C 59.90 117.45 59.28 114.75 59.00 112.00
C 63.11 114.05 64.02 107.64 67.00 106.00
C 60.64 106.76 54.76 105.58 49.00 104.00
C 50.89 106.38 47.78 105.54 47.00 107.00
C 48.69 106.55 49.90 107.32 51.00 108.00 Z"/>
</g>
<g fill="None" fill-opacity="0.0" stroke="#B88544" stroke-opacity="1.00" stroke-width="0.3"><path d="
M 87.00 108.00 
C 87.21 107.73 87.96 107.35 88.00 107.00
C 88.77 108.41 84.26 103.58 87.00 105.00
C 86.99 105.00 82.41 107.36 87.00 108.00 Z"/>
</g>
<g fill="None" fill-opacity="0.0" stroke="#74441C" stroke-opacity="1.00" stroke-width="0.3"><path d="
M 88.00 107.00 
C 88.04 106.68 87.27 105.14 87.00 105.00
C 84.26 103.58 88.77 108.41 88.00 107.00 Z"/>
</g>
<g fill="None" fill-opacity="0.0" stroke="#633A24" stroke-opacity="1.00" stroke-width="0.3"><path d="
M 57.00 117.00 
C 56.99 118.18 56.22 117.66 58.00 119.00
C 58.32 119.42 59.23 113.53 57.00 117.00 Z"/>
</g>
<g fill="None" fill-opacity="0.0" stroke="#885431" stroke-opacity="1.00" stroke-width="0.3"><path d="
M 65.00 121.00 
C 65.88 119.59 64.85 119.86 65.00 119.00
C 65.18 118.78 61.42 122.89 65.00 121.00 Z"/>
</g>
<g fill="#FEFEFC" fill-opacity="1.00" stroke="None">
<path d="
M 0.00 128.00 
L 128.00 128.00
L 128.00 0.00
L 0.00 0.00
L 0.00 128.00
M 85.00 49.00 
C 81.84 49.65 78.22 48.71 75.00 49.00
C 74.96 49.00 75.00 50.00 75.00 50.00
C 77.03 50.67 76.48 52.16 78.00 53.00
C 79.43 53.30 81.66 53.90 83.00 54.00
C 87.21 54.32 96.23 49.90 100.02 51.02 C 103.81 52.15 113.27 51.81 109.23 56.23 C 105.18 60.65 95.07 53.11 92.00 59.00
C 88.09 50.02 81.63 64.72 92.00 60.00
C 97.35 67.62 108.26 63.76 116.00 65.00
C 111.91 65.90 109.41 69.41 105.00 70.00
C 105.57 73.55 107.66 82.08 102.75 83.75 C 97.85 85.43 98.76 89.39 101.78 94.22 C 104.79 99.06 111.62 92.29 114.00 93.00
C 114.87 94.01 113.81 97.80 115.00 99.00
C 111.09 97.93 107.04 100.22 102.00 100.00
C 99.88 100.58 100.96 100.25 100.00 102.00
C 98.80 104.19 99.77 103.98 98.00 104.00
C 93.70 104.06 91.29 102.42 87.00 105.00
C 87.27 105.14 88.04 106.68 88.00 107.00
C 87.96 107.35 87.21 107.73 87.00 108.00
C 85.25 110.24 86.30 113.36 86.00 116.00
C 82.19 111.46 75.61 112.63 71.00 115.00
C 68.22 116.13 66.97 116.59 65.00 119.00
C 64.85 119.86 65.88 119.59 65.00 121.00
C 63.38 123.59 60.06 120.55 58.00 119.00
C 56.22 117.66 56.99 118.18 57.00 117.00
C 57.04 112.11 55.43 110.73 51.00 108.00
C 46.43 107.03 43.49 111.36 40.00 111.00
C 38.47 110.84 36.25 107.83 35.00 107.00
C 31.40 105.37 26.98 106.21 23.00 106.00
C 23.00 104.67 23.00 103.33 23.00 102.00
C 22.92 101.74 23.65 101.14 24.00 101.00
C 27.77 99.53 24.74 96.22 23.00 94.00
C 19.60 91.35 14.80 92.79 11.00 91.00
C 14.55 88.65 18.27 85.50 21.00 82.00
C 21.09 81.65 21.72 81.23 22.00 81.00
C 23.09 80.07 22.84 79.47 23.00 78.00
C 23.07 77.99 17.91 76.93 18.00 77.00
C 16.27 75.68 17.28 73.01 17.00 71.00
C 25.10 71.64 32.97 69.31 35.25 60.25 C 37.53 51.19 47.89 59.13 49.00 51.00
C 45.00 51.00 41.00 51.00 37.00 51.00
C 38.69 43.42 43.30 35.88 48.00 30.00
C 52.97 21.18 58.61 12.34 62.00 3.00
C 66.38 9.76 72.28 19.03 75.75 26.25 C 79.22 33.46 87.61 44.81 85.00 49.00 Z"/>
</g>
<g fill="#F1BF65" fill-opacity="1.00" stroke="None">
<path d="
M 48.00 30.00 
C 46.09 33.40 37.09 47.89 40.00 49.00
C 42.40 42.26 47.00 36.17 53.25 32.25 C 59.50 28.32 62.37 19.68 70.00 19.00
C 70.03 21.37 72.50 22.72 73.00 25.00
C 73.73 26.34 74.28 27.67 75.00 29.00
C 75.95 30.74 77.02 32.30 78.00 34.00
C 78.76 35.32 79.28 36.67 80.00 38.00
C 80.96 39.78 86.62 48.01 85.00 49.00
C 87.61 44.81 79.22 33.46 75.75 26.25 C 72.28 19.03 66.38 9.76 62.00 3.00
C 58.61 12.34 52.97 21.18 48.00 30.00 Z"/>
</g>
<g fill="#ECA745" fill-opacity="1.00" stroke="None">
<path d="
M 40.00 49.00 
C 43.37 50.29 47.90 47.50 51.00 50.00
C 51.00 49.50 51.00 49.00 51.00 49.00
C 49.03 47.41 46.34 48.20 44.00 48.00
C 55.18 43.51 62.19 26.88 73.00 25.00
C 72.50 22.72 70.03 21.37 70.00 19.00
C 62.37 19.68 59.50 28.32 53.25 32.25 C 47.00 36.17 42.40 42.26 40.00 49.00 Z"/>
</g>
<g fill="#E2913A" fill-opacity="1.00" stroke="None">
<path d="
M 51.00 49.00 
C 55.00 46.86 60.08 41.03 63.25 38.25 C 66.41 35.47 73.33 28.19 75.00 29.00
C 74.28 27.67 73.73 26.34 73.00 25.00
C 62.19 26.88 55.18 43.51 44.00 48.00
C 46.34 48.20 49.03 47.41 51.00 49.00 Z"/>
</g>
<g fill="#D57E34" fill-opacity="1.00" stroke="None">
<path d="
M 51.00 49.00 
C 51.00 49.00 51.00 49.50 51.00 50.00
C 51.00 50.50 51.00 51.00 51.00 51.00
C 51.25 53.06 50.18 54.70 50.00 56.00
C 49.98 57.32 50.13 58.69 50.00 60.00
C 50.29 59.41 50.68 58.82 51.00 58.00
C 54.23 49.69 70.24 42.17 75.00 32.00
C 76.25 32.30 76.71 33.83 78.00 34.00
C 77.02 32.30 75.95 30.74 75.00 29.00
C 73.33 28.19 66.41 35.47 63.25 38.25 C 60.08 41.03 55.00 46.86 51.00 49.00 Z"/>
</g>
<g fill="#FCF2D1" fill-opacity="1.00" stroke="None">
<path d="
M 18.00 77.00 
C 17.65 70.01 29.56 74.88 31.75 68.75 C 33.94 62.62 40.42 61.86 39.00 56.00
C 42.31 55.78 44.33 59.24 48.00 58.00
C 47.89 59.00 48.47 60.73 47.00 61.00
C 46.47 61.98 43.89 63.45 43.00 64.00
C 44.37 63.66 45.54 63.13 47.00 63.00
C 46.20 74.47 42.94 84.89 43.00 96.00
C 40.25 96.27 39.32 92.71 37.00 92.00
C 39.57 90.13 37.43 85.41 35.00 89.00
C 34.36 84.83 36.29 79.34 34.00 76.00
C 34.00 76.50 34.00 77.00 34.00 77.00
C 32.00 80.50 32.62 88.15 34.92 91.08 C 37.23 94.00 41.31 100.01 45.00 97.00
C 45.26 96.79 45.95 96.23 46.00 96.00
C 46.53 93.60 46.00 90.46 46.00 88.00
C 46.00 83.27 46.30 78.90 48.00 75.00
C 48.00 74.50 48.00 74.00 48.00 74.00
C 47.75 71.91 48.79 70.34 49.00 69.00
C 49.18 65.79 49.70 63.01 50.00 60.00
C 50.13 58.69 49.98 57.32 50.00 56.00
C 50.04 53.93 49.62 52.43 51.00 51.00
C 51.00 51.00 51.00 50.50 51.00 50.00
C 47.90 47.50 43.37 50.29 40.00 49.00
C 37.09 47.89 46.09 33.40 48.00 30.00
C 43.30 35.88 38.69 43.42 37.00 51.00
C 41.00 51.00 45.00 51.00 49.00 51.00
C 47.89 59.13 37.53 51.19 35.25 60.25 C 32.97 69.31 25.10 71.64 17.00 71.00
C 17.28 73.01 16.27 75.68 18.00 77.00 Z"/>
</g>
<g fill="#CC6C2D" fill-opacity="1.00" stroke="None">
<path d="
M 51.00 58.00 
C 53.94 57.45 53.83 60.25 57.77 55.77 C 61.70 51.28 68.99 47.26 72.75 42.75 C 76.51 38.24 76.55 35.94 80.00 38.00
C 79.28 36.67 78.76 35.32 78.00 34.00
C 76.71 33.83 76.25 32.30 75.00 32.00
C 70.24 42.17 54.23 49.69 51.00 58.00 Z"/>
</g>
<g fill="#B85D29" fill-opacity="1.00" stroke="None">
<path d="
M 51.00 58.00 
C 50.68 58.82 50.29 59.41 50.00 60.00
C 49.70 63.01 49.18 65.79 49.00 69.00
C 48.89 71.09 49.41 72.54 48.00 74.00
C 48.00 74.00 48.00 74.50 48.00 75.00
C 48.00 75.50 48.00 76.00 48.00 76.00
C 54.18 69.69 69.76 61.77 74.00 52.00
C 74.02 51.74 73.77 48.40 75.00 49.00
C 78.22 48.71 81.84 49.65 85.00 49.00
C 86.62 48.01 80.96 39.78 80.00 38.00
C 76.55 35.94 76.51 38.24 72.75 42.75 C 68.99 47.26 61.70 51.28 57.77 55.77 C 53.83 60.25 53.94 57.45 51.00 58.00 Z"/>
</g>
<g fill="#D8A571" fill-opacity="1.00" stroke="None">
<path d="
M 74.00 52.00 
C 73.87 53.63 73.95 55.37 74.00 57.00
C 74.05 57.15 75.00 57.00 75.00 57.00
C 75.00 55.33 75.00 53.67 75.00 52.00
C 75.00 51.50 75.00 50.50 75.00 50.00
C 75.00 50.00 74.96 49.00 75.00 49.00
C 73.77 48.40 74.02 51.74 74.00 52.00 Z"/>
</g>
<g fill="#FEF7D0" fill-opacity="1.00" stroke="None">
<path d="
M 75.00 52.00 
C 75.34 52.87 77.32 52.86 78.00 53.00
C 76.48 52.16 77.03 50.67 75.00 50.00
C 75.00 50.50 75.00 51.50 75.00 52.00 Z"/>
</g>
<g fill="#E8B87C" fill-opacity="1.00" stroke="None">
<path d="
M 50.00 56.00 
C 50.18 54.70 51.25 53.06 51.00 51.00
C 49.62 52.43 50.04 53.93 50.00 56.00 Z"/>
</g>
<g fill="#F7EECD" fill-opacity="1.00" stroke="None">
<path d="
M 83.00 54.00 
C 85.01 55.88 81.54 57.82 82.00 60.00
C 85.86 63.35 92.34 60.04 94.00 66.00
C 98.36 64.18 102.11 66.25 106.00 68.00
C 105.59 68.83 105.03 69.87 104.00 70.00
C 103.73 70.18 103.34 70.86 103.00 71.00
C 102.32 74.56 104.64 78.11 105.00 81.00
C 102.98 83.81 100.47 81.02 98.00 83.00
C 99.08 83.63 99.25 85.53 98.00 86.00
C 97.87 91.92 100.84 92.43 102.00 97.00
C 106.53 98.67 111.05 95.96 114.00 93.00
C 111.62 92.29 104.79 99.06 101.78 94.22 C 98.76 89.39 97.85 85.43 102.75 83.75 C 107.66 82.08 105.57 73.55 105.00 70.00
C 109.41 69.41 111.91 65.90 116.00 65.00
C 108.26 63.76 97.35 67.62 92.00 60.00
C 81.63 64.72 88.09 50.02 92.00 59.00
C 95.07 53.11 105.18 60.65 109.23 56.23 C 113.27 51.81 103.81 52.15 100.02 51.02 C 96.23 49.90 87.21 54.32 83.00 54.00 Z"/>
</g>
<g fill="#9C4926" fill-opacity="1.00" stroke="None">
<path d="
M 48.00 76.00 
C 47.91 79.94 46.33 84.60 46.00 88.00
C 46.00 90.46 46.53 93.60 46.00 96.00
C 46.25 96.93 45.80 98.05 46.00 99.00
C 54.96 87.83 68.02 80.12 75.00 69.00
C 74.62 67.18 75.00 64.86 75.00 63.00
C 75.00 62.50 75.00 62.00 75.00 62.00
C 73.69 60.64 74.06 58.97 74.00 57.00
C 73.95 55.37 73.87 53.63 74.00 52.00
C 69.76 61.77 54.18 69.69 48.00 76.00 Z"/>
</g>
<g fill="#F3D188" fill-opacity="1.00" stroke="None">
<path d="
M 75.00 57.00 
C 75.00 58.67 75.00 60.33 75.00 62.00
C 75.00 62.00 75.00 62.50 75.00 63.00
C 76.36 64.59 75.99 66.77 76.00 69.00
C 76.01 70.33 76.00 71.67 76.00 73.00
C 76.13 73.22 77.00 73.00 77.00 73.00
C 76.92 69.02 76.84 64.97 77.00 61.00
C 77.08 59.05 76.47 57.26 78.00 56.00
C 78.79 55.35 81.08 56.50 82.00 56.00
C 81.75 58.19 78.93 59.01 80.00 62.00
C 82.77 63.95 86.99 66.21 89.00 69.00
C 88.17 67.50 86.66 66.55 86.00 65.00
C 87.61 65.01 90.43 64.41 90.00 67.00
C 93.09 68.04 102.47 66.81 104.00 70.00
C 105.03 69.87 105.59 68.83 106.00 68.00
C 102.11 66.25 98.36 64.18 94.00 66.00
C 92.34 60.04 85.86 63.35 82.00 60.00
C 81.54 57.82 85.01 55.88 83.00 54.00
C 81.66 53.90 79.43 53.30 78.00 53.00
C 77.32 52.86 75.34 52.87 75.00 52.00
C 75.00 53.67 75.00 55.33 75.00 57.00 Z"/>
</g>
<g fill="#EBC577" fill-opacity="1.00" stroke="None">
<path d="
M 18.00 77.00 
C 17.91 76.93 23.07 77.99 23.00 78.00
C 23.17 76.44 33.39 70.44 36.00 73.00
C 35.27 70.31 35.83 69.17 38.00 67.00
C 37.78 67.39 36.27 64.42 37.00 64.00
C 39.70 64.70 42.83 63.20 42.00 60.00
C 43.57 60.39 46.22 59.06 47.00 61.00
C 48.47 60.73 47.89 59.00 48.00 58.00
C 44.33 59.24 42.31 55.78 39.00 56.00
C 40.42 61.86 33.94 62.62 31.75 68.75 C 29.56 74.88 17.65 70.01 18.00 77.00 Z"/>
</g>
<g fill="#8F592D" fill-opacity="1.00" stroke="None">
<path d="
M 77.00 61.00 
C 77.08 60.81 78.58 60.82 79.00 61.00
C 79.05 60.56 79.43 54.83 78.00 56.00
C 76.47 57.26 77.08 59.05 77.00 61.00 Z"/>
</g>
<g fill="#BF8946" fill-opacity="1.00" stroke="None">
<path d="
M 79.00 61.00 
C 79.26 61.11 79.70 61.79 80.00 62.00
C 78.93 59.01 81.75 58.19 82.00 56.00
C 81.08 56.50 78.79 55.35 78.00 56.00
C 79.43 54.83 79.05 60.56 79.00 61.00 Z"/>
</g>
<g fill="#A76D32" fill-opacity="1.00" stroke="None">
<path d="
M 75.00 62.00 
C 75.00 60.33 75.00 58.67 75.00 57.00
C 75.00 57.00 74.05 57.15 74.00 57.00
C 74.06 58.97 73.69 60.64 75.00 62.00 Z"/>
</g>
<g fill="#B5814A" fill-opacity="1.00" stroke="None">
<path d="
M 38.00 67.00 
C 39.53 65.47 41.41 64.99 43.00 64.00
C 43.89 63.45 46.47 61.98 47.00 61.00
C 46.22 59.06 43.57 60.39 42.00 60.00
C 42.83 63.20 39.70 64.70 37.00 64.00
C 36.27 64.42 37.78 67.39 38.00 67.00 Z"/>
</g>
<g fill="#FDF2D1" fill-opacity="1.00" stroke="None">
<path d="
M 77.00 73.00 
C 77.12 79.13 78.00 84.72 78.00 91.00
C 78.16 92.34 79.92 94.97 79.00 97.00
C 86.15 95.71 90.52 86.91 90.00 80.00
C 89.95 79.51 90.00 79.00 90.00 79.00
C 90.00 78.50 89.76 77.31 90.00 77.00
C 92.06 74.40 90.85 72.37 89.00 69.00
C 86.99 66.21 82.77 63.95 80.00 62.00
C 79.70 61.79 79.26 61.11 79.00 61.00
C 78.58 60.82 77.08 60.81 77.00 61.00
C 76.84 64.97 76.92 69.02 77.00 73.00
M 78.00 63.00 
C 85.06 64.87 88.33 71.17 89.00 78.00 C 89.67 84.83 82.90 97.06 80.01 87.99 C 77.12 78.92 79.80 72.01 78.00 63.00 Z"/>
</g>
<g fill="#FDFBF7" fill-opacity="1.00" stroke="None">
<path d="
M 43.00 64.00 
C 41.41 64.99 39.53 65.47 38.00 67.00
C 35.83 69.17 35.27 70.31 36.00 73.00
C 36.07 73.27 35.25 73.75 35.00 74.00
C 34.75 74.25 34.12 74.74 34.00 75.00
C 33.81 75.41 34.00 76.00 34.00 76.00
C 36.29 79.34 34.36 84.83 35.00 89.00
C 37.43 85.41 39.57 90.13 37.00 92.00
C 39.32 92.71 40.25 96.27 43.00 96.00
C 42.94 84.89 46.20 74.47 47.00 63.00
C 45.54 63.13 44.37 63.66 43.00 64.00 Z"/>
</g>
<g fill="#D09769" fill-opacity="1.00" stroke="None">
<path d="
M 75.00 69.00 
C 75.01 68.92 76.00 69.00 76.00 69.00
C 75.99 66.77 76.36 64.59 75.00 63.00
C 75.00 64.86 74.62 67.18 75.00 69.00 Z"/>
</g>
<g fill="#FDFDFA" fill-opacity="1.00" stroke="None">
<path d="
M 78.00 63.00 
C 79.80 72.01 77.12 78.92 80.01 87.99 C 82.90 97.06 89.67 84.83 89.00 78.00 C 88.33 71.17 85.06 64.87 78.00 63.00 Z"/>
</g>
<g fill="#AE743E" fill-opacity="1.00" stroke="None">
<path d="
M 89.00 69.00 
C 90.85 72.37 92.06 74.40 90.00 77.00
C 91.68 76.09 92.31 78.20 90.00 79.00
C 90.00 79.00 89.95 79.51 90.00 80.00
C 90.25 80.25 91.00 80.00 91.00 80.00
C 95.20 79.38 91.51 68.85 90.00 67.00
C 90.43 64.41 87.61 65.01 86.00 65.00
C 86.66 66.55 88.17 67.50 89.00 69.00 Z"/>
</g>
<g fill="#DF963F" fill-opacity="1.00" stroke="None">
<path d="
M 91.00 80.00 
C 92.10 81.84 92.49 83.96 93.00 86.00
C 94.56 82.43 94.41 84.09 97.00 86.00
C 95.07 84.34 97.44 83.99 98.00 83.00
C 99.42 80.51 99.66 76.62 103.00 77.00
C 101.43 75.53 99.28 71.00 103.00 71.00
C 103.34 70.86 103.73 70.18 104.00 70.00
C 102.47 66.81 93.09 68.04 90.00 67.00
C 91.51 68.85 95.20 79.38 91.00 80.00 Z"/>
</g>
<g fill="#D29B68" fill-opacity="1.00" stroke="None">
<path d="
M 48.00 74.00 
C 49.41 72.54 48.89 71.09 49.00 69.00
C 48.79 70.34 47.75 71.91 48.00 74.00 Z"/>
</g>
<g fill="#B65927" fill-opacity="1.00" stroke="None">
<path d="
M 46.00 96.00 
C 45.95 96.23 45.26 96.79 45.00 97.00
C 44.91 100.48 48.61 100.41 51.00 101.00
C 53.63 101.33 56.36 100.76 59.00 101.00
C 62.48 91.85 75.80 90.29 76.00 80.00
C 75.78 77.71 76.00 75.30 76.00 73.00
C 76.00 71.67 76.01 70.33 76.00 69.00
C 76.00 69.00 75.01 68.92 75.00 69.00
C 68.02 80.12 54.96 87.83 46.00 99.00
C 45.80 98.05 46.25 96.93 46.00 96.00 Z"/>
</g>
<g fill="#E3B66B" fill-opacity="1.00" stroke="None">
<path d="
M 98.00 83.00 
C 100.47 81.02 102.98 83.81 105.00 81.00
C 104.64 78.11 102.32 74.56 103.00 71.00
C 99.28 71.00 101.43 75.53 103.00 77.00
C 99.66 76.62 99.42 80.51 98.00 83.00 Z"/>
</g>
<g fill="#B7672C" fill-opacity="1.00" stroke="None">
<path d="
M 23.00 78.00 
C 22.84 79.47 23.09 80.07 22.00 81.00
C 21.50 86.38 22.22 85.46 19.00 90.00
C 19.27 90.13 19.68 90.81 20.00 91.00
C 22.08 90.94 26.52 89.42 27.00 86.00
C 29.28 85.15 29.59 87.15 31.00 88.00
C 30.05 83.99 28.69 78.25 34.00 77.00
C 34.00 77.00 34.00 76.50 34.00 76.00
C 34.00 76.00 33.81 75.41 34.00 75.00
C 31.14 74.04 33.12 74.44 35.00 74.00
C 35.25 73.75 36.07 73.27 36.00 73.00
C 33.39 70.44 23.17 76.44 23.00 78.00 Z"/>
</g>
<g fill="#DD9246" fill-opacity="1.00" stroke="None">
<path d="
M 76.00 80.00 
C 76.34 83.60 77.82 88.69 77.00 93.00
C 72.65 93.91 70.85 100.71 66.00 102.00
C 70.18 101.67 73.96 99.95 78.00 99.00
C 78.00 96.33 78.00 93.67 78.00 91.00
C 78.00 84.72 77.12 79.13 77.00 73.00
C 77.00 73.00 76.13 73.22 76.00 73.00
C 76.00 75.30 75.78 77.71 76.00 80.00 Z"/>
</g>
<g fill="#612A09" fill-opacity="1.00" stroke="None">
<path d="
M 34.00 75.00 
C 34.12 74.74 34.75 74.25 35.00 74.00
C 33.12 74.44 31.14 74.04 34.00 75.00 Z"/>
</g>
<g fill="#DEB085" fill-opacity="1.00" stroke="None">
<path d="
M 46.00 88.00 
C 46.33 84.60 47.91 79.94 48.00 76.00
C 48.00 76.00 48.00 75.50 48.00 75.00
C 46.30 78.90 46.00 83.27 46.00 88.00 Z"/>
</g>
<g fill="#F3BC5A" fill-opacity="1.00" stroke="None">
<path d="
M 31.00 88.00 
C 32.27 93.37 35.19 98.02 40.00 101.00
C 42.94 102.82 45.79 103.12 49.00 104.00
C 54.76 105.58 60.64 106.76 67.00 106.00
C 64.02 107.64 63.11 114.05 59.00 112.00
C 59.28 114.75 59.90 117.45 61.00 120.00
C 63.98 118.13 67.75 112.93 71.00 115.00
C 75.61 112.63 82.19 111.46 86.00 116.00
C 86.30 113.36 85.25 110.24 87.00 108.00
C 82.41 107.36 86.99 105.00 87.00 105.00
C 91.29 102.42 93.70 104.06 98.00 104.00
C 96.56 100.51 99.52 102.41 100.00 102.00
C 100.96 100.25 99.88 100.58 102.00 100.00
C 102.20 99.54 102.13 97.50 102.00 97.00
C 100.84 92.43 97.87 91.92 98.00 86.00
C 97.56 86.16 97.00 86.00 97.00 86.00
C 94.41 84.09 94.56 82.43 93.00 86.00
C 92.49 83.96 92.10 81.84 91.00 80.00
C 91.00 80.00 90.25 80.25 90.00 80.00
C 90.52 86.91 86.15 95.71 79.00 97.00
C 79.92 94.97 78.16 92.34 78.00 91.00
C 78.00 93.67 78.00 96.33 78.00 99.00
C 73.96 99.95 70.18 101.67 66.00 102.00
C 60.99 102.40 55.26 102.06 51.00 101.00
C 48.61 100.41 44.91 100.48 45.00 97.00
C 41.31 100.01 37.23 94.00 34.92 91.08 C 32.62 88.15 32.00 80.50 34.00 77.00
C 28.69 78.25 30.05 83.99 31.00 88.00 Z"/>
</g>
<g fill="#5E2B0A" fill-opacity="1.00" stroke="None">
<path d="
M 90.00 79.00 
C 92.31 78.20 91.68 76.09 90.00 77.00
C 89.76 77.31 90.00 78.50 90.00 79.00 Z"/>
</g>
<g fill="#CC702C" fill-opacity="1.00" stroke="None">
<path d="
M 51.00 101.00 
C 55.26 102.06 60.99 102.40 66.00 102.00
C 70.85 100.71 72.65 93.91 77.00 93.00
C 77.82 88.69 76.34 83.60 76.00 80.00
C 75.80 90.29 62.48 91.85 59.00 101.00
C 56.36 100.76 53.63 101.33 51.00 101.00 Z"/>
</g>
<g fill="#F3C676" fill-opacity="1.00" stroke="None">
<path d="
M 21.00 82.00 
C 20.11 85.41 15.74 88.36 19.00 90.00
C 22.22 85.46 21.50 86.38 22.00 81.00
C 21.72 81.23 21.09 81.65 21.00 82.00 Z"/>
</g>
<g fill="#F5EECD" fill-opacity="1.00" stroke="None">
<path d="
M 23.00 94.00 
C 21.99 92.72 21.40 91.84 20.00 91.00
C 19.68 90.81 19.27 90.13 19.00 90.00
C 15.74 88.36 20.11 85.41 21.00 82.00
C 18.27 85.50 14.55 88.65 11.00 91.00
C 14.80 92.79 19.60 91.35 23.00 94.00 Z"/>
</g>
<g fill="#815227" fill-opacity="1.00" stroke="None">
<path d="
M 97.00 86.00 
C 97.00 86.00 97.56 86.16 98.00 86.00
C 99.25 85.53 99.08 83.63 98.00 83.00
C 97.44 83.99 95.07 84.34 97.00 86.00 Z"/>
</g>
<g fill="#9A4F2B" fill-opacity="1.00" stroke="None">
<path d="
M 20.00 91.00 
C 21.40 91.84 21.99 92.72 23.00 94.00
C 24.74 96.22 27.77 99.53 24.00 101.00
C 24.83 101.18 26.18 104.21 26.00 105.00
C 29.40 106.42 31.88 104.92 35.00 107.00
C 36.25 107.83 38.47 110.84 40.00 111.00
C 36.29 107.78 33.17 100.20 40.00 101.00
C 35.19 98.02 32.27 93.37 31.00 88.00
C 29.59 87.15 29.28 85.15 27.00 86.00
C 26.52 89.42 22.08 90.94 20.00 91.00 Z"/>
</g>
<g fill="#D2AE7E" fill-opacity="1.00" stroke="None">
<path d="
M 102.00 97.00 
C 102.13 97.50 102.20 99.54 102.00 100.00
C 107.04 100.22 111.09 97.93 115.00 99.00
C 113.81 97.80 114.87 94.01 114.00 93.00
C 111.05 95.96 106.53 98.67 102.00 97.00 Z"/>
</g>
<g fill="#AA855D" fill-opacity="1.00" stroke="None">
<path d="
M 23.00 102.00 
C 23.08 102.28 25.68 104.87 26.00 105.00
C 26.18 104.21 24.83 101.18 24.00 101.00
C 23.65 101.14 22.92 101.74 23.00 102.00 Z"/>
</g>
<g fill="#B86530" fill-opacity="1.00" stroke="None">
<path d="
M 40.00 111.00 
C 43.49 111.36 46.43 107.03 51.00 108.00
C 49.90 107.32 48.69 106.55 47.00 107.00
C 47.78 105.54 50.89 106.38 49.00 104.00
C 45.79 103.12 42.94 102.82 40.00 101.00
C 33.17 100.20 36.29 107.78 40.00 111.00 Z"/>
</g>
<g fill="#704A2D" fill-opacity="1.00" stroke="None">
<path d="
M 98.00 104.00 
C 99.77 103.98 98.80 104.19 100.00 102.00
C 99.52 102.41 96.56 100.51 98.00 104.00 Z"/>
</g>
<g fill="#F2D8B8" fill-opacity="1.00" stroke="None">
<path d="
M 35.00 107.00 
C 31.88 104.92 29.40 106.42 26.00 105.00
C 25.68 104.87 23.08 102.28 23.00 102.00
C 23.00 103.33 23.00 104.67 23.00 106.00
C 26.98 106.21 31.40 105.37 35.00 107.00 Z"/>
</g>
<g fill="#D38E48" fill-opacity="1.00" stroke="None">
<path d="
M 51.00 108.00 
C 55.43 110.73 57.04 112.11 57.00 117.00
C 59.23 113.53 58.32 119.42 58.00 119.00
C 60.06 120.55 63.38 123.59 65.00 121.00
C 61.42 122.89 65.18 118.78 65.00 119.00
C 66.97 116.59 68.22 116.13 71.00 115.00
C 67.75 112.93 63.98 118.13 61.00 120.00
C 59.90 117.45 59.28 114.75 59.00 112.00
C 63.11 114.05 64.02 107.64 67.00 106.00
C 60.64 106.76 54.76 105.58 49.00 104.00
C 50.89 106.38 47.78 105.54 47.00 107.00
C 48.69 106.55 49.90 107.32 51.00 108.00 Z"/>
</g>
<g fill="#B88544" fill-opacity="1.00" stroke="None">
<path d="
M 87.00 108.00 
C 87.21 107.73 87.96 107.35 88.00 107.00
C 88.77 108.41 84.26 103.58 87.00 105.00
C 86.99 105.00 82.41 107.36 87.00 108.00 Z"/>
</g>
<g fill="#74441C" fill-opacity="1.00" stroke="None">
<path d="
M 88.00 107.00 
C 88.04 106.68 87.27 105.14 87.00 105.00
C 84.26 103.58 88.77 108.41 88.00 107.00 Z"/>
</g>
<g fill="#633A24" fill-opacity="1.00" stroke="None">
<path d="
M 57.00 117.00 
C 56.99 118.18 56.22 117.66 58.00 119.00
C 58.32 119.42 59.23 113.53 57.00 117.00 Z"/>
</g>
<g fill="#885431" fill-opacity="1.00" stroke="None">
<path d="
M 65.00 121.00 
C 65.88 119.59 64.85 119.86 65.00 119.00
C 65.18 118.78 61.42 122.89 65.00 121.00 Z"/>
</g>
</svg>